# xmcd
# 
# Track frame offsets:
#     150
#     18176
#     38450
#     59675
#     78688
# 
# Disc length: 1255
# 
# Revision: 0
# Processed by: cddbd v1.5.2PL0 Copyright (c) Steve Scherf et al.
# Submitted via: fre:ac v1.0.17
# 
DISCID=3504e505
DTITLE=the krazy band - lady vampire
DYEAR=2012
DGENRE=Alt. Rock
TTITLE0=lady vampire
TTITLE1=it will come true
TTITLE2=i lost your smile
TTITLE3=remind your voice
TTITLE4=red eyes
EXTD=
EXTT0=
EXTT1=
EXTT2=
EXTT3=
EXTT4=
PLAYORDER=
